<svg width="35" height="35" viewBox="0 0 35 35" fill="none" xmlns="http://www.w3.org/2000/svg">
<path d="M13.125 27.708C5.83333 29.8955 5.83333 24.0622 2.91666 23.333M23.3333 32.083V26.4393C23.388 25.7439 23.2941 25.0448 23.0577 24.3885C22.8214 23.7323 22.448 23.1338 21.9625 22.633C26.5417 22.1226 31.3542 20.3872 31.3542 12.4247C31.3538 10.3886 30.5706 8.4306 29.1667 6.95594C29.8315 5.17459 29.7844 3.20561 29.0354 1.45802C29.0354 1.45802 27.3146 0.947602 23.3333 3.61635C19.9908 2.71047 16.4675 2.71047 13.125 3.61635C9.14375 0.947602 7.42291 1.45802 7.42291 1.45802C6.67388 3.20561 6.62687 5.17459 7.29166 6.95594C5.87727 8.44154 5.09326 10.4172 5.10416 12.4684C5.10416 20.3726 9.91666 22.108 14.4958 22.6768C14.016 23.1726 13.646 23.7638 13.4098 24.4121C13.1736 25.0603 13.0766 25.751 13.125 26.4393V32.083" stroke="black" stroke-opacity="0.85" stroke-width="2" stroke-linecap="round" stroke-linejoin="round"/>
</svg>
