<svg width="382" height="424" viewBox="0 0 382 424" fill="none" xmlns="http://www.w3.org/2000/svg">
<path d="M76.3454 74.1505C83.299 60.6505 93.8455 53.6505 118.345 43.6505C138.67 36.7061 150.099 32.8997 171.845 29.6505C193.521 26.7231 205.673 26.5358 227.345 27.1505C248.93 29.5436 259.845 31.1506 269.845 38.6505C278.309 44.538 281.898 49.3423 281.011 56.6505C280.692 59.2729 279.798 62.2177 278.345 65.6505C264.345 83.6505 246.345 93.6505 212.345 102.151C211.98 102.232 187.855 108.181 162.845 110.151C143.845 112.151 129.756 109.028 118.345 107.651C89.3454 104.151 68.671 89.0502 76.3454 74.1505Z" fill="#828282" fill-opacity="0.81"/>
<path d="M164.346 81.1506C136.572 81.933 122.512 68.4839 118.846 60.1506C117.65 53.3164 117.762 49.4847 118.846 42.6506C120.533 35.6965 122.141 31.9972 125.846 25.6506C125.846 25.6506 137.846 10.1506 149.846 5.65059C156.553 3.13532 165.846 0.753983 167.846 0.650554C169.846 0.547125 171.346 -0.349382 184.346 0.150585C197.346 0.650551 210.346 8.81725 216.846 14.1506C220.512 16.6506 228.546 25.1506 231.346 39.1506C234.146 53.1506 219.846 64.1506 212.846 68.6506C205.846 73.1506 199.846 74.6506 196.846 75.6506C193.846 76.6506 182.709 80.6333 164.346 81.1506Z" fill="#D9D9D9" fill-opacity="0.16"/>
<path d="M167.346 26.6506C167.346 20.1506 160.346 16.6506 159.846 16.6506C159.846 16.6506 155.346 16.1506 151.346 17.1507C145.012 19.6507 132.846 27.2507 134.846 37.6507C136.846 48.0507 147.346 47.6506 153.846 44.6506C159.346 41.1506 167.346 33.1004 167.346 26.6506Z" fill="#D9D9D9" fill-opacity="0.46"/>
<path d="M125.082 91.6713C124.845 94.1507 121.435 97.6656 117.845 97.6656C113.345 97.6656 111.345 96.6507 110.845 93.6507C111.345 89.6507 114.992 87.1564 118.582 87.1564C122.845 86.6507 125.082 88.9099 125.082 91.6713Z" fill="black" fill-opacity="0.67"/>
<path d="M123.345 90.1506C123.845 92.6506 120.883 94.1506 117.845 94.1506C114.617 94.6092 111.493 93.5867 112.345 89.6507C112.89 86.8565 114.84 85.121 117.345 84.6506C120.345 85.1506 122.845 88.1506 123.345 90.1506Z" fill="#A0E5FB" fill-opacity="0.88"/>
<path d="M163.582 96.6713C163.345 99.1507 159.935 102.666 156.345 102.666C151.845 102.666 149.845 101.651 149.345 98.6507C149.845 94.6507 153.492 92.1564 157.082 92.1564C161.345 91.6507 163.582 93.9099 163.582 96.6713Z" fill="black" fill-opacity="0.67"/>
<path d="M161.845 95.1506C162.345 97.6506 159.383 99.1506 156.345 99.1506C153.117 99.6092 149.993 98.5867 150.845 94.6507C151.39 91.8565 153.34 90.121 155.845 89.6506C158.845 90.1506 161.345 93.1506 161.845 95.1506Z" fill="#A0E5FB" fill-opacity="0.88"/>
<path d="M208.582 89.6713C208.345 92.1507 204.935 95.6656 201.345 95.6656C196.845 95.6656 194.845 94.6507 194.345 91.6507C194.845 87.6507 198.492 85.1564 202.082 85.1564C206.345 84.6507 208.582 86.9099 208.582 89.6713Z" fill="black" fill-opacity="0.67"/>
<path d="M206.845 88.1506C207.345 90.6506 204.383 92.1506 201.345 92.1506C198.117 92.6092 194.993 91.5867 195.845 87.6507C196.39 84.8565 198.34 83.121 200.845 82.6506C203.845 83.1506 206.345 86.1506 206.845 88.1506Z" fill="#A0E5FB" fill-opacity="0.88"/>
<path d="M248.582 71.6713C248.345 74.1507 244.935 77.6656 241.345 77.6656C236.845 77.6656 234.845 76.6507 234.345 73.6507C234.845 69.6507 238.492 67.1564 242.082 67.1564C246.345 66.6507 248.582 68.9099 248.582 71.6713Z" fill="black" fill-opacity="0.67"/>
<path d="M246.845 70.1506C247.345 72.6506 244.383 74.1506 241.345 74.1506C238.117 74.6092 234.993 73.5867 235.845 69.6507C236.39 66.8565 238.34 65.121 240.845 64.6506C243.845 65.1506 246.345 68.1506 246.845 70.1506Z" fill="#A0E5FB" fill-opacity="0.88"/>
<path d="M264.582 44.6713C264.345 47.1507 260.935 50.6656 257.345 50.6656C252.845 50.6656 250.845 49.6507 250.345 46.6507C250.845 42.6507 254.492 40.1564 258.082 40.1564C262.345 39.6507 264.582 41.9099 264.582 44.6713Z" fill="black" fill-opacity="0.67"/>
<path d="M262.845 43.1506C263.345 45.6506 260.383 47.1506 257.345 47.1506C254.117 47.6092 250.993 46.5867 251.845 42.6507C252.39 39.8565 254.34 38.121 256.845 37.6506C259.845 38.1506 262.345 41.1506 262.845 43.1506Z" fill="#A0E5FB" fill-opacity="0.88"/>
<path d="M107.582 68.6713C107.345 71.1507 103.935 74.6656 100.345 74.6656C95.8454 74.6656 93.8455 73.6507 93.3455 70.6507C93.8455 66.6507 97.4923 64.1564 101.082 64.1564C105.345 63.6507 107.582 65.9099 107.582 68.6713Z" fill="black" fill-opacity="0.67"/>
<path d="M105.845 67.1506C106.345 69.6506 103.383 71.1506 100.345 71.1506C97.1166 71.6092 93.9927 70.5867 94.8455 66.6507C95.3903 63.8565 97.3395 62.121 99.8455 61.6506C102.845 62.1506 105.345 65.1506 105.845 67.1506Z" fill="#A0E5FB" fill-opacity="0.88"/>
<circle cx="243.345" cy="223.651" r="2" fill="#DBDBDB" fill-opacity="0.99"/>
<circle cx="243.345" cy="223.651" r="2" fill="#DBDBDB" fill-opacity="0.99"/>
<circle cx="243.345" cy="223.651" r="2" fill="#DBDBDB" fill-opacity="0.99"/>
<circle cx="243.345" cy="223.651" r="2" fill="#DBDBDB" fill-opacity="0.99"/>
<circle cx="233.345" cy="175.651" r="2" fill="#DBDBDB" fill-opacity="0.99"/>
<circle cx="233.345" cy="175.651" r="2" fill="#DBDBDB" fill-opacity="0.99"/>
<circle cx="233.345" cy="175.651" r="2" fill="#DBDBDB" fill-opacity="0.99"/>
<circle cx="233.345" cy="175.651" r="2" fill="#DBDBDB" fill-opacity="0.99"/>
<circle cx="115.345" cy="243.651" r="2" fill="#DBDBDB" fill-opacity="0.99"/>
<circle cx="115.345" cy="243.651" r="2" fill="#DBDBDB" fill-opacity="0.99"/>
<circle cx="115.345" cy="243.651" r="2" fill="#DBDBDB" fill-opacity="0.99"/>
<circle cx="115.345" cy="243.651" r="2" fill="#DBDBDB" fill-opacity="0.99"/>
<circle cx="119.345" cy="407.651" r="2" fill="#DBDBDB" fill-opacity="0.2"/>
<circle cx="149.345" cy="398.651" r="2" fill="#DBDBDB" fill-opacity="0.99"/>
<circle cx="149.345" cy="398.651" r="2" fill="#DBDBDB" fill-opacity="0.99"/>
<circle cx="149.345" cy="398.651" r="2" fill="#DBDBDB" fill-opacity="0.99"/>
<circle cx="149.345" cy="398.651" r="2" fill="#DBDBDB" fill-opacity="0.99"/>
<circle cx="179.345" cy="417.651" r="2" fill="#86A5D9" fill-opacity="0.11"/>
<circle cx="179.345" cy="417.651" r="2" fill="#86A5D9" fill-opacity="0.11"/>
<circle cx="179.345" cy="417.651" r="2" fill="#86A5D9" fill-opacity="0.11"/>
<circle cx="179.345" cy="417.651" r="2" fill="#86A5D9" fill-opacity="0.11"/>
<circle cx="227.345" cy="396.651" r="2" fill="#86A5D9" fill-opacity="0.11"/>
<circle cx="227.345" cy="396.651" r="2" fill="#86A5D9" fill-opacity="0.11"/>
<circle cx="227.345" cy="396.651" r="2" fill="#86A5D9" fill-opacity="0.11"/>
<circle cx="227.345" cy="396.651" r="2" fill="#86A5D9" fill-opacity="0.11"/>
<circle cx="194.345" cy="398.651" r="2" fill="#86A5D9" fill-opacity="0.11"/>
<circle cx="194.345" cy="398.651" r="2" fill="#86A5D9" fill-opacity="0.11"/>
<circle cx="194.345" cy="398.651" r="2" fill="#86A5D9" fill-opacity="0.11"/>
<circle cx="194.345" cy="398.651" r="2" fill="#86A5D9" fill-opacity="0.11"/>
<circle cx="206.345" cy="413.651" r="2" fill="#86A5D9" fill-opacity="0.11"/>
<circle cx="206.345" cy="413.651" r="2" fill="#86A5D9" fill-opacity="0.11"/>
<circle cx="206.345" cy="413.651" r="2" fill="#86A5D9" fill-opacity="0.11"/>
<circle cx="206.345" cy="413.651" r="2" fill="#86A5D9" fill-opacity="0.11"/>
<circle cx="206.345" cy="386.651" r="2" fill="#86A5D9" fill-opacity="0.11"/>
<circle cx="206.345" cy="386.651" r="2" fill="#86A5D9" fill-opacity="0.11"/>
<circle cx="206.345" cy="386.651" r="2" fill="#86A5D9" fill-opacity="0.11"/>
<circle cx="206.345" cy="386.651" r="2" fill="#86A5D9" fill-opacity="0.11"/>
<circle cx="127.345" cy="388.651" r="2" fill="#86A5D9" fill-opacity="0.11"/>
<circle cx="127.345" cy="388.651" r="2" fill="#86A5D9" fill-opacity="0.11"/>
<circle cx="127.345" cy="388.651" r="2" fill="#86A5D9" fill-opacity="0.11"/>
<circle cx="127.345" cy="388.651" r="2" fill="#86A5D9" fill-opacity="0.11"/>
<circle cx="82.3455" cy="386.651" r="2" fill="#86A5D9" fill-opacity="0.11"/>
<circle cx="82.3455" cy="386.651" r="2" fill="#86A5D9" fill-opacity="0.11"/>
<circle cx="82.3455" cy="386.651" r="2" fill="#86A5D9" fill-opacity="0.11"/>
<circle cx="82.3455" cy="386.651" r="2" fill="#86A5D9" fill-opacity="0.11"/>
<circle cx="94.3455" cy="421.651" r="2" fill="#86A5D9" fill-opacity="0.11"/>
<circle cx="94.3455" cy="421.651" r="2" fill="#86A5D9" fill-opacity="0.11"/>
<circle cx="94.3455" cy="421.651" r="2" fill="#86A5D9" fill-opacity="0.11"/>
<circle cx="94.3455" cy="421.651" r="2" fill="#86A5D9" fill-opacity="0.11"/>
<circle cx="281.345" cy="405.651" r="2" fill="#86A5D9" fill-opacity="0.11"/>
<circle cx="281.345" cy="405.651" r="2" fill="#86A5D9" fill-opacity="0.11"/>
<circle cx="281.345" cy="405.651" r="2" fill="#86A5D9" fill-opacity="0.11"/>
<circle cx="281.345" cy="405.651" r="2" fill="#86A5D9" fill-opacity="0.11"/>
<circle cx="258.345" cy="380.651" r="2" fill="#86A5D9" fill-opacity="0.11"/>
<circle cx="258.345" cy="380.651" r="2" fill="#86A5D9" fill-opacity="0.11"/>
<circle cx="258.345" cy="380.651" r="2" fill="#86A5D9" fill-opacity="0.11"/>
<circle cx="258.345" cy="380.651" r="2" fill="#86A5D9" fill-opacity="0.11"/>
<circle cx="265.345" cy="417.651" r="2" fill="#86A5D9" fill-opacity="0.11"/>
<circle cx="265.345" cy="417.651" r="2" fill="#86A5D9" fill-opacity="0.11"/>
<circle cx="265.345" cy="417.651" r="2" fill="#86A5D9" fill-opacity="0.11"/>
<circle cx="265.345" cy="417.651" r="2" fill="#86A5D9" fill-opacity="0.11"/>
<circle cx="125.845" cy="216.151" r="2.5" fill="#DBDBDB" fill-opacity="0.5"/>
<circle cx="125.845" cy="216.151" r="2.5" fill="#DBDBDB" fill-opacity="0.5"/>
<circle cx="125.845" cy="216.151" r="2.5" fill="#DBDBDB" fill-opacity="0.5"/>
<circle cx="125.845" cy="216.151" r="2.5" fill="#DBDBDB" fill-opacity="0.5"/>
<circle cx="139.845" cy="186.151" r="2.5" fill="#86A5D9" fill-opacity="0.11"/>
<circle cx="139.845" cy="186.151" r="2.5" fill="#86A5D9" fill-opacity="0.11"/>
<circle cx="139.845" cy="186.151" r="2.5" fill="#86A5D9" fill-opacity="0.11"/>
<circle cx="139.845" cy="186.151" r="2.5" fill="#86A5D9" fill-opacity="0.11"/>
<circle cx="132.845" cy="150.151" r="2.5" fill="#DBDBDB" fill-opacity="0.5"/>
<circle cx="132.845" cy="150.151" r="2.5" fill="#DBDBDB" fill-opacity="0.5"/>
<circle cx="132.845" cy="150.151" r="2.5" fill="#DBDBDB" fill-opacity="0.5"/>
<circle cx="132.845" cy="150.151" r="2.5" fill="#DBDBDB" fill-opacity="0.5"/>
<circle cx="141.845" cy="127.151" r="2.5" fill="#DBDBDB" fill-opacity="0.5"/>
<circle cx="141.845" cy="127.151" r="2.5" fill="#DBDBDB" fill-opacity="0.5"/>
<circle cx="141.845" cy="127.151" r="2.5" fill="#DBDBDB" fill-opacity="0.5"/>
<circle cx="141.845" cy="127.151" r="2.5" fill="#DBDBDB" fill-opacity="0.5"/>
<circle cx="234.845" cy="129.151" r="2.5" fill="#DBDBDB" fill-opacity="0.5"/>
<circle cx="234.845" cy="129.151" r="2.5" fill="#DBDBDB" fill-opacity="0.5"/>
<circle cx="234.845" cy="129.151" r="2.5" fill="#DBDBDB" fill-opacity="0.5"/>
<circle cx="234.845" cy="129.151" r="2.5" fill="#DBDBDB" fill-opacity="0.5"/>
<circle cx="242.845" cy="115.151" r="2.5" fill="#DBDBDB" fill-opacity="0.99"/>
<circle cx="242.845" cy="115.151" r="2.5" fill="#DBDBDB" fill-opacity="0.99"/>
<circle cx="242.845" cy="115.151" r="2.5" fill="#DBDBDB" fill-opacity="0.99"/>
<circle cx="242.845" cy="115.151" r="2.5" fill="#DBDBDB" fill-opacity="0.99"/>
<circle cx="246.845" cy="144.151" r="3.5" fill="#DBDBDB" fill-opacity="0.5"/>
<circle cx="246.845" cy="144.151" r="3.5" fill="#DBDBDB" fill-opacity="0.5"/>
<circle cx="246.845" cy="144.151" r="3.5" fill="#DBDBDB" fill-opacity="0.5"/>
<circle cx="246.845" cy="144.151" r="3.5" fill="#DBDBDB" fill-opacity="0.5"/>
<circle cx="217.845" cy="124.151" r="3.5" fill="#5F8565" fill-opacity="0.25"/>
<circle cx="217.845" cy="124.151" r="3.5" fill="#5F8565" fill-opacity="0.25"/>
<circle cx="217.845" cy="124.151" r="3.5" fill="#5F8565" fill-opacity="0.25"/>
<circle cx="217.845" cy="124.151" r="3.5" fill="#5F8565" fill-opacity="0.25"/>
<circle cx="157.845" cy="127.151" r="3.5" fill="#5F8565" fill-opacity="0.25"/>
<circle cx="157.845" cy="127.151" r="3.5" fill="#5F8565" fill-opacity="0.25"/>
<circle cx="157.845" cy="127.151" r="3.5" fill="#5F8565" fill-opacity="0.25"/>
<circle cx="157.845" cy="127.151" r="3.5" fill="#5F8565" fill-opacity="0.25"/>
<circle cx="122.845" cy="130.151" r="3.5" fill="#5F8565" fill-opacity="0.25"/>
<circle cx="122.845" cy="130.151" r="3.5" fill="#5F8565" fill-opacity="0.25"/>
<circle cx="122.845" cy="130.151" r="3.5" fill="#5F8565" fill-opacity="0.25"/>
<circle cx="122.845" cy="130.151" r="3.5" fill="#5F8565" fill-opacity="0.25"/>
<circle cx="224.845" cy="158.151" r="2.5" fill="#5F8565" fill-opacity="0.25"/>
<circle cx="224.845" cy="158.151" r="2.5" fill="#5F8565" fill-opacity="0.25"/>
<circle cx="224.845" cy="158.151" r="2.5" fill="#5F8565" fill-opacity="0.25"/>
<circle cx="224.845" cy="158.151" r="2.5" fill="#5F8565" fill-opacity="0.25"/>
<circle cx="234.845" cy="201.151" r="2.5" fill="#5F8565" fill-opacity="0.25"/>
<circle cx="234.845" cy="201.151" r="2.5" fill="#5F8565" fill-opacity="0.25"/>
<circle cx="234.845" cy="201.151" r="2.5" fill="#5F8565" fill-opacity="0.25"/>
<circle cx="234.845" cy="201.151" r="2.5" fill="#5F8565" fill-opacity="0.25"/>
<circle cx="260.845" cy="219.151" r="2.5" fill="#DBDBDB" fill-opacity="0.5"/>
<circle cx="260.845" cy="219.151" r="2.5" fill="#DBDBDB" fill-opacity="0.5"/>
<circle cx="260.845" cy="219.151" r="2.5" fill="#DBDBDB" fill-opacity="0.5"/>
<circle cx="260.845" cy="219.151" r="2.5" fill="#DBDBDB" fill-opacity="0.5"/>
<path d="M209.5 108L160 117.5L51 335H329.5L209.5 108Z" fill="url(#paint0_linear_20_154)"/>
<path d="M185.845 288.651C185.012 292.484 182.943 300.151 182.143 300.151C181.143 300.151 177.652 301.651 177.643 299.151C177.635 297.144 179.734 285.029 178.643 285.151C176.143 291.817 170.543 304.251 168.143 300.651C165.143 296.151 170.071 294.211 170.143 292.151C170.241 289.333 172.143 281.651 170.643 280.651C166.976 282.484 160.643 284.936 157.643 283.651C154.143 282.151 153.643 273.151 155.143 271.151C155.976 269.317 157.843 265.751 158.643 266.151C159.643 266.651 155.543 255.651 157.143 247.651C157.643 245.151 157.143 239.151 160.643 233.651C161.809 233.484 164.343 236.051 165.143 247.651C165.79 257.032 165.599 259.297 165.52 259.727C165.543 259.688 165.581 259.651 165.643 259.651C166.143 259.651 173.643 234.151 177.143 236.151C179.943 237.751 178.309 247.817 177.143 252.651L172.345 265.151C173.345 265.484 175.643 265.551 175.643 265.151C175.643 264.651 183.73 247.941 184.52 247.151C185.52 246.151 198.52 234.151 201.02 235.151C199.52 234.551 198.845 228.151 204.845 228.151C212.345 228.151 209.845 235.151 209.845 235.651C209.845 236.151 213.845 241.151 214.345 241.151C214.845 241.151 219.345 238.651 221.845 239.651C224.345 240.651 234.643 239.63 234.643 245.651C234.643 248.651 229.845 246.132 228.643 245.651C226.143 244.651 217.643 243.651 217.143 245.151C216.491 247.106 229.643 248.651 228.643 252.651C226.845 253.651 222.345 254.151 215.143 250.151C207.661 252.891 206.85 252.171 206.902 251.72C198.902 269.553 187.008 276 189 276C190.6 276 187.564 284.434 185.845 288.651Z" fill="url(#paint1_linear_20_154)"/>
<path d="M185.845 288.651C185.012 292.484 182.943 300.151 182.143 300.151C181.143 300.151 177.652 301.651 177.643 299.151C177.635 297.144 179.734 285.029 178.643 285.151C176.143 291.817 170.543 304.251 168.143 300.651C165.143 296.151 170.071 294.211 170.143 292.151C170.241 289.333 172.143 281.651 170.643 280.651C166.976 282.484 160.643 284.936 157.643 283.651C154.143 282.151 153.643 273.151 155.143 271.151C155.976 269.317 157.843 265.751 158.643 266.151C159.643 266.651 155.543 255.651 157.143 247.651C157.643 245.151 157.143 239.151 160.643 233.651C161.809 233.484 164.343 236.051 165.143 247.651C165.79 257.032 165.599 259.297 165.52 259.727C165.543 259.688 165.581 259.651 165.643 259.651C166.143 259.651 173.643 234.151 177.143 236.151C179.943 237.751 178.309 247.817 177.143 252.651L172.345 265.151C173.345 265.484 175.643 265.551 175.643 265.151C175.643 264.651 183.73 247.941 184.52 247.151C185.52 246.151 198.52 234.151 201.02 235.151C199.52 234.551 198.845 228.151 204.845 228.151C212.345 228.151 209.845 235.151 209.845 235.651C209.845 236.151 213.845 241.151 214.345 241.151C214.845 241.151 219.345 238.651 221.845 239.651C224.345 240.651 234.643 239.63 234.643 245.651C234.643 248.651 229.845 246.132 228.643 245.651C226.143 244.651 217.643 243.651 217.143 245.151C216.491 247.106 229.643 248.651 228.643 252.651C226.845 253.651 222.345 254.151 215.143 250.151C207.661 252.891 206.85 252.171 206.902 251.72C198.902 269.553 187.008 276 189 276C190.6 276 187.564 284.434 185.845 288.651Z" fill="white" fill-opacity="0.65"/>
<path d="M185.845 288.651C185.012 292.484 182.943 300.151 182.143 300.151C181.143 300.151 177.652 301.651 177.643 299.151C177.635 297.144 179.734 285.029 178.643 285.151C176.143 291.817 170.543 304.251 168.143 300.651C165.143 296.151 170.071 294.211 170.143 292.151C170.241 289.333 172.143 281.651 170.643 280.651C166.976 282.484 160.643 284.936 157.643 283.651C154.143 282.151 153.643 273.151 155.143 271.151C155.976 269.317 157.843 265.751 158.643 266.151C159.643 266.651 155.543 255.651 157.143 247.651C157.643 245.151 157.143 239.151 160.643 233.651C161.809 233.484 164.343 236.051 165.143 247.651C166.143 262.151 165.143 259.651 165.643 259.651C166.143 259.651 173.643 234.151 177.143 236.151C179.943 237.751 178.309 247.817 177.143 252.651L172.345 265.151C173.345 265.484 175.643 265.551 175.643 265.151C175.643 264.651 183.73 247.941 184.52 247.151C185.52 246.151 198.52 234.151 201.02 235.151C199.52 234.551 198.845 228.151 204.845 228.151C212.345 228.151 209.845 235.151 209.845 235.651C209.845 236.151 213.845 241.151 214.345 241.151C214.845 241.151 219.345 238.651 221.845 239.651C224.345 240.651 234.643 239.63 234.643 245.651C234.643 248.651 229.845 246.132 228.643 245.651C226.143 244.651 217.643 243.651 217.143 245.151C216.491 247.106 229.643 248.651 228.643 252.651C226.845 253.651 222.345 254.151 215.143 250.151C206 253.5 206.819 251.681 207 251.5C199 269.5 187 276 189 276C190.6 276 187.564 284.434 185.845 288.651Z" stroke="#C2C2C2"/>
<circle cx="163.345" cy="273.651" r="2" fill="url(#paint2_linear_20_154)"/>
<path d="M38.3455 415.151L27.3455 415.651C27.0658 415.122 21.1105 418.15 14.3455 405.151C7.58045 392.152 -4.65456 367.151 1.84548 364.151C7.49415 361.543 22.0797 387.531 25.2563 396.114C23.4736 382.978 19.1684 324.707 23.8455 322.151C28.6062 319.548 35.525 382.809 36.3471 393.764C36.7008 387.577 39.993 363.781 42.9852 351.364C43.9852 351.864 45.7455 356.351 47.3455 365.151C48.9455 373.951 44.8455 404.651 38.3455 415.151Z" fill="url(#paint3_linear_20_154)"/>
<path d="M329.846 400.651H320.846C311.846 392.651 311.846 370.651 313.846 369.651C315.446 368.851 319.179 382.317 320.846 389.151C320.346 376.817 320.246 351.551 323.846 349.151C328.346 346.151 327.042 388.603 328.346 389.151C329.695 389.717 332.905 368.656 340.346 366.151C346.411 364.109 336.012 389.151 329.846 400.651Z" fill="url(#paint4_linear_20_154)"/>
<path d="M358.845 409.651L348.845 405.651C349.15 372.271 353.345 324.151 360.345 324.151C367.345 324.151 357.845 394.151 357.845 394.151C360.817 381.452 372.664 361.436 379.845 361.651C387.027 361.866 369.454 400.022 358.845 409.651Z" fill="url(#paint5_linear_20_154)"/>
<ellipse cx="184.846" cy="402.151" rx="119.5" ry="17.5" fill="#D9D9D9" fill-opacity="0.31"/>
<ellipse cx="187.345" cy="402.651" rx="62" ry="8" fill="#459CB7" fill-opacity="0.65"/>
<path d="M179.077 108.493L179.075 108.493C147.614 113.264 122.305 109.017 104.843 103.313C96.1133 100.461 89.3426 97.2442 84.7425 94.6062C82.4433 93.2877 80.681 92.1107 79.485 91.1924C79.0291 90.8423 78.6503 90.5259 78.3534 90.2503C78.1579 93.9513 80.2914 97.7369 84.5725 101.288C89.2941 105.205 96.5442 108.756 105.813 111.472C124.343 116.9 150.821 118.953 180.919 114.006C211.044 109.055 239.98 100.098 259.436 89.8218C269.173 84.6793 276.482 79.2341 280.399 73.8384C282.353 71.1462 283.444 68.4917 283.596 65.9112C283.748 63.3402 282.971 60.7939 281.1 58.2999C281.064 58.2515 281.032 58.2126 281.005 58.1815C280.961 58.262 280.907 58.3755 280.842 58.5319C280.732 58.7951 280.611 59.1298 280.459 59.5457L280.446 59.5829C279.818 61.3092 278.769 64.1678 276.412 67.7037C271.696 74.7779 261.792 84.4924 239.688 93.4371L239.681 93.4398C225.162 99.0613 205.563 104.367 179.077 108.493Z" fill="#7A7A7A" fill-opacity="0.76" stroke="#595959"/>
<defs>
<linearGradient id="paint0_linear_20_154" x1="187" y1="97" x2="190.25" y2="335" gradientUnits="userSpaceOnUse">
<stop stop-color="#214956" stop-opacity="0.7"/>
<stop offset="1" stop-color="#86A5D9" stop-opacity="0"/>
</linearGradient>
<linearGradient id="paint1_linear_20_154" x1="194.494" y1="228.151" x2="194.494" y2="301.292" gradientUnits="userSpaceOnUse">
<stop offset="0.30803" stop-color="#79FFEF"/>
<stop offset="0.946761" stop-color="white" stop-opacity="0.85"/>
</linearGradient>
<linearGradient id="paint2_linear_20_154" x1="163.345" y1="271.651" x2="167.5" y2="280" gradientUnits="userSpaceOnUse">
<stop/>
<stop offset="1" stop-opacity="0"/>
</linearGradient>
<linearGradient id="paint3_linear_20_154" x1="23.846" y1="322.073" x2="23.846" y2="415.651" gradientUnits="userSpaceOnUse">
<stop stop-color="#07E1FF"/>
<stop offset="1" stop-color="#2BE83F"/>
</linearGradient>
<linearGradient id="paint4_linear_20_154" x1="347.145" y1="324.151" x2="347.145" y2="409.651" gradientUnits="userSpaceOnUse">
<stop stop-color="#00C2FF" stop-opacity="0.7"/>
<stop offset="1" stop-color="#2BE83F"/>
</linearGradient>
<linearGradient id="paint5_linear_20_154" x1="347.145" y1="324.151" x2="347.145" y2="409.651" gradientUnits="userSpaceOnUse">
<stop stop-color="#00C2FF" stop-opacity="0.7"/>
<stop offset="1" stop-color="#2BE83F"/>
</linearGradient>
</defs>
</svg>
