<svg width="382" height="424" viewBox="0 0 382 424" fill="none" xmlns="http://www.w3.org/2000/svg">
<path d="M76.3454 74.1505C83.299 60.6505 93.8455 53.6505 118.345 43.6505C138.67 36.7061 150.099 32.8997 171.845 29.6505C193.521 26.7231 205.673 26.5358 227.345 27.1505C248.93 29.5436 259.845 31.1506 269.845 38.6505C278.309 44.538 281.898 49.3423 281.011 56.6505C280.692 59.2729 279.798 62.2177 278.345 65.6505C264.345 83.6505 246.345 93.6505 212.345 102.151C211.98 102.232 187.855 108.181 162.845 110.151C143.845 112.151 129.756 109.028 118.345 107.651C89.3454 104.151 68.671 89.0502 76.3454 74.1505Z" fill="#828282" fill-opacity="0.81"/>
<path d="M164.346 81.1506C136.572 81.933 122.512 68.4839 118.846 60.1506C117.65 53.3164 117.762 49.4847 118.846 42.6506C120.533 35.6965 122.141 31.9972 125.846 25.6506C125.846 25.6506 137.846 10.1506 149.846 5.65059C156.553 3.13532 165.846 0.753983 167.846 0.650554C169.846 0.547125 171.346 -0.349382 184.346 0.150585C197.346 0.650551 210.346 8.81725 216.846 14.1506C220.512 16.6506 228.546 25.1506 231.346 39.1506C234.146 53.1506 219.846 64.1506 212.846 68.6506C205.846 73.1506 199.846 74.6506 196.846 75.6506C193.846 76.6506 182.709 80.6333 164.346 81.1506Z" fill="#D9D9D9" fill-opacity="0.16"/>
<path d="M167.346 26.6504C167.346 20.1504 160.346 16.6504 159.846 16.6504C159.846 16.6504 155.346 16.1504 151.346 17.1504C145.012 19.6504 132.846 27.2504 134.846 37.6504C136.846 48.0504 147.346 47.6504 153.846 44.6504C159.346 41.1504 167.346 33.1002 167.346 26.6504Z" fill="#D9D9D9" fill-opacity="0.46"/>
<path d="M125.082 91.6711C124.845 94.1504 121.435 97.6653 117.845 97.6653C113.345 97.6653 111.345 96.6505 110.845 93.6505C111.345 89.6505 114.992 87.1562 118.582 87.1562C122.845 86.6504 125.082 88.9096 125.082 91.6711Z" fill="black" fill-opacity="0.67"/>
<path d="M123.345 90.1504C123.845 92.6504 120.883 94.1504 117.845 94.1504C114.617 94.6089 111.493 93.5865 112.345 89.6504C112.89 86.8563 114.84 85.1207 117.345 84.6504C120.345 85.1504 122.845 88.1504 123.345 90.1504Z" fill="#A0E5FB" fill-opacity="0.88"/>
<path d="M163.582 96.6711C163.345 99.1504 159.935 102.665 156.345 102.665C151.845 102.665 149.845 101.65 149.345 98.6505C149.845 94.6505 153.492 92.1562 157.082 92.1562C161.345 91.6504 163.582 93.9096 163.582 96.6711Z" fill="black" fill-opacity="0.67"/>
<path d="M161.845 95.1504C162.345 97.6504 159.383 99.1504 156.345 99.1504C153.117 99.6089 149.993 98.5865 150.845 94.6504C151.39 91.8563 153.34 90.1207 155.845 89.6504C158.845 90.1504 161.345 93.1504 161.845 95.1504Z" fill="#A0E5FB" fill-opacity="0.88"/>
<path d="M208.582 89.6711C208.345 92.1504 204.935 95.6653 201.345 95.6653C196.845 95.6653 194.845 94.6505 194.345 91.6505C194.845 87.6505 198.492 85.1562 202.082 85.1562C206.345 84.6504 208.582 86.9096 208.582 89.6711Z" fill="black" fill-opacity="0.67"/>
<path d="M206.845 88.1504C207.345 90.6504 204.383 92.1504 201.345 92.1504C198.117 92.6089 194.993 91.5865 195.845 87.6504C196.39 84.8563 198.34 83.1207 200.845 82.6504C203.845 83.1504 206.345 86.1504 206.845 88.1504Z" fill="#A0E5FB" fill-opacity="0.88"/>
<path d="M248.582 71.6711C248.345 74.1504 244.935 77.6653 241.345 77.6653C236.845 77.6653 234.845 76.6505 234.345 73.6505C234.845 69.6505 238.492 67.1562 242.082 67.1562C246.345 66.6504 248.582 68.9096 248.582 71.6711Z" fill="black" fill-opacity="0.67"/>
<path d="M246.845 70.1504C247.345 72.6504 244.383 74.1504 241.345 74.1504C238.117 74.6089 234.993 73.5865 235.845 69.6504C236.39 66.8563 238.34 65.1207 240.845 64.6504C243.845 65.1504 246.345 68.1504 246.845 70.1504Z" fill="#A0E5FB" fill-opacity="0.88"/>
<path d="M264.582 44.6711C264.345 47.1504 260.935 50.6653 257.345 50.6653C252.845 50.6653 250.845 49.6505 250.345 46.6505C250.845 42.6505 254.492 40.1562 258.082 40.1562C262.345 39.6504 264.582 41.9096 264.582 44.6711Z" fill="black" fill-opacity="0.67"/>
<path d="M262.845 43.1504C263.345 45.6504 260.383 47.1504 257.345 47.1504C254.117 47.6089 250.993 46.5865 251.845 42.6504C252.39 39.8563 254.34 38.1207 256.845 37.6504C259.845 38.1504 262.345 41.1504 262.845 43.1504Z" fill="#A0E5FB" fill-opacity="0.88"/>
<path d="M107.582 68.6711C107.345 71.1504 103.935 74.6653 100.345 74.6653C95.8454 74.6653 93.8455 73.6505 93.3455 70.6505C93.8455 66.6505 97.4923 64.1562 101.082 64.1562C105.345 63.6504 107.582 65.9096 107.582 68.6711Z" fill="black" fill-opacity="0.67"/>
<path d="M105.845 67.1504C106.345 69.6504 103.383 71.1504 100.345 71.1504C97.1166 71.6089 93.9927 70.5865 94.8455 66.6504C95.3903 63.8563 97.3395 62.1207 99.8455 61.6504C102.845 62.1504 105.345 65.1504 105.845 67.1504Z" fill="#A0E5FB" fill-opacity="0.88"/>
<circle cx="243.345" cy="223.65" r="2" fill="#DBDBDB" fill-opacity="0.99"/>
<circle cx="243.345" cy="223.65" r="2" fill="#DBDBDB" fill-opacity="0.99"/>
<circle cx="243.345" cy="223.65" r="2" fill="#DBDBDB" fill-opacity="0.99"/>
<circle cx="243.345" cy="223.65" r="2" fill="#DBDBDB" fill-opacity="0.99"/>
<circle cx="233.345" cy="175.65" r="2" fill="#DBDBDB" fill-opacity="0.99"/>
<circle cx="233.345" cy="175.65" r="2" fill="#DBDBDB" fill-opacity="0.99"/>
<circle cx="233.345" cy="175.65" r="2" fill="#DBDBDB" fill-opacity="0.99"/>
<circle cx="233.345" cy="175.65" r="2" fill="#DBDBDB" fill-opacity="0.99"/>
<circle cx="115.345" cy="243.65" r="2" fill="#DBDBDB" fill-opacity="0.99"/>
<circle cx="115.345" cy="243.65" r="2" fill="#DBDBDB" fill-opacity="0.99"/>
<circle cx="115.345" cy="243.65" r="2" fill="#DBDBDB" fill-opacity="0.99"/>
<circle cx="115.345" cy="243.65" r="2" fill="#DBDBDB" fill-opacity="0.99"/>
<circle cx="119.345" cy="407.65" r="2" fill="#DBDBDB" fill-opacity="0.2"/>
<circle cx="149.345" cy="398.65" r="2" fill="#DBDBDB" fill-opacity="0.99"/>
<circle cx="149.345" cy="398.65" r="2" fill="#DBDBDB" fill-opacity="0.99"/>
<circle cx="149.345" cy="398.65" r="2" fill="#DBDBDB" fill-opacity="0.99"/>
<circle cx="149.345" cy="398.65" r="2" fill="#DBDBDB" fill-opacity="0.99"/>
<circle cx="179.345" cy="417.65" r="2" fill="#86A5D9" fill-opacity="0.11"/>
<circle cx="179.345" cy="417.65" r="2" fill="#86A5D9" fill-opacity="0.11"/>
<circle cx="179.345" cy="417.65" r="2" fill="#86A5D9" fill-opacity="0.11"/>
<circle cx="179.345" cy="417.65" r="2" fill="#86A5D9" fill-opacity="0.11"/>
<circle cx="227.345" cy="396.65" r="2" fill="#86A5D9" fill-opacity="0.11"/>
<circle cx="227.345" cy="396.65" r="2" fill="#86A5D9" fill-opacity="0.11"/>
<circle cx="227.345" cy="396.65" r="2" fill="#86A5D9" fill-opacity="0.11"/>
<circle cx="227.345" cy="396.65" r="2" fill="#86A5D9" fill-opacity="0.11"/>
<circle cx="194.345" cy="398.65" r="2" fill="#86A5D9" fill-opacity="0.11"/>
<circle cx="194.345" cy="398.65" r="2" fill="#86A5D9" fill-opacity="0.11"/>
<circle cx="194.345" cy="398.65" r="2" fill="#86A5D9" fill-opacity="0.11"/>
<circle cx="194.345" cy="398.65" r="2" fill="#86A5D9" fill-opacity="0.11"/>
<circle cx="206.345" cy="413.65" r="2" fill="#86A5D9" fill-opacity="0.11"/>
<circle cx="206.345" cy="413.65" r="2" fill="#86A5D9" fill-opacity="0.11"/>
<circle cx="206.345" cy="413.65" r="2" fill="#86A5D9" fill-opacity="0.11"/>
<circle cx="206.345" cy="413.65" r="2" fill="#86A5D9" fill-opacity="0.11"/>
<circle cx="206.345" cy="386.65" r="2" fill="#86A5D9" fill-opacity="0.11"/>
<circle cx="206.345" cy="386.65" r="2" fill="#86A5D9" fill-opacity="0.11"/>
<circle cx="206.345" cy="386.65" r="2" fill="#86A5D9" fill-opacity="0.11"/>
<circle cx="206.345" cy="386.65" r="2" fill="#86A5D9" fill-opacity="0.11"/>
<circle cx="127.345" cy="388.65" r="2" fill="#86A5D9" fill-opacity="0.11"/>
<circle cx="127.345" cy="388.65" r="2" fill="#86A5D9" fill-opacity="0.11"/>
<circle cx="127.345" cy="388.65" r="2" fill="#86A5D9" fill-opacity="0.11"/>
<circle cx="127.345" cy="388.65" r="2" fill="#86A5D9" fill-opacity="0.11"/>
<circle cx="82.3455" cy="386.65" r="2" fill="#86A5D9" fill-opacity="0.11"/>
<circle cx="82.3455" cy="386.65" r="2" fill="#86A5D9" fill-opacity="0.11"/>
<circle cx="82.3455" cy="386.65" r="2" fill="#86A5D9" fill-opacity="0.11"/>
<circle cx="82.3455" cy="386.65" r="2" fill="#86A5D9" fill-opacity="0.11"/>
<circle cx="94.3455" cy="421.65" r="2" fill="#86A5D9" fill-opacity="0.11"/>
<circle cx="94.3455" cy="421.65" r="2" fill="#86A5D9" fill-opacity="0.11"/>
<circle cx="94.3455" cy="421.65" r="2" fill="#86A5D9" fill-opacity="0.11"/>
<circle cx="94.3455" cy="421.65" r="2" fill="#86A5D9" fill-opacity="0.11"/>
<circle cx="281.345" cy="405.65" r="2" fill="#86A5D9" fill-opacity="0.11"/>
<circle cx="281.345" cy="405.65" r="2" fill="#86A5D9" fill-opacity="0.11"/>
<circle cx="281.345" cy="405.65" r="2" fill="#86A5D9" fill-opacity="0.11"/>
<circle cx="281.345" cy="405.65" r="2" fill="#86A5D9" fill-opacity="0.11"/>
<circle cx="258.345" cy="380.65" r="2" fill="#86A5D9" fill-opacity="0.11"/>
<circle cx="258.345" cy="380.65" r="2" fill="#86A5D9" fill-opacity="0.11"/>
<circle cx="258.345" cy="380.65" r="2" fill="#86A5D9" fill-opacity="0.11"/>
<circle cx="258.345" cy="380.65" r="2" fill="#86A5D9" fill-opacity="0.11"/>
<circle cx="265.345" cy="417.65" r="2" fill="#86A5D9" fill-opacity="0.11"/>
<circle cx="265.345" cy="417.65" r="2" fill="#86A5D9" fill-opacity="0.11"/>
<circle cx="265.345" cy="417.65" r="2" fill="#86A5D9" fill-opacity="0.11"/>
<circle cx="265.345" cy="417.65" r="2" fill="#86A5D9" fill-opacity="0.11"/>
<circle cx="125.845" cy="216.15" r="2.5" fill="#DBDBDB" fill-opacity="0.5"/>
<circle cx="125.845" cy="216.15" r="2.5" fill="#DBDBDB" fill-opacity="0.5"/>
<circle cx="125.845" cy="216.15" r="2.5" fill="#DBDBDB" fill-opacity="0.5"/>
<circle cx="125.845" cy="216.15" r="2.5" fill="#DBDBDB" fill-opacity="0.5"/>
<circle cx="139.845" cy="186.15" r="2.5" fill="#86A5D9" fill-opacity="0.11"/>
<circle cx="139.845" cy="186.15" r="2.5" fill="#86A5D9" fill-opacity="0.11"/>
<circle cx="139.845" cy="186.15" r="2.5" fill="#86A5D9" fill-opacity="0.11"/>
<circle cx="139.845" cy="186.15" r="2.5" fill="#86A5D9" fill-opacity="0.11"/>
<circle cx="132.845" cy="150.15" r="2.5" fill="#DBDBDB" fill-opacity="0.5"/>
<circle cx="132.845" cy="150.15" r="2.5" fill="#DBDBDB" fill-opacity="0.5"/>
<circle cx="132.845" cy="150.15" r="2.5" fill="#DBDBDB" fill-opacity="0.5"/>
<circle cx="132.845" cy="150.15" r="2.5" fill="#DBDBDB" fill-opacity="0.5"/>
<circle cx="141.845" cy="127.15" r="2.5" fill="#DBDBDB" fill-opacity="0.5"/>
<circle cx="141.845" cy="127.15" r="2.5" fill="#DBDBDB" fill-opacity="0.5"/>
<circle cx="141.845" cy="127.15" r="2.5" fill="#DBDBDB" fill-opacity="0.5"/>
<circle cx="141.845" cy="127.15" r="2.5" fill="#DBDBDB" fill-opacity="0.5"/>
<circle cx="234.845" cy="129.15" r="2.5" fill="#DBDBDB" fill-opacity="0.5"/>
<circle cx="234.845" cy="129.15" r="2.5" fill="#DBDBDB" fill-opacity="0.5"/>
<circle cx="234.845" cy="129.15" r="2.5" fill="#DBDBDB" fill-opacity="0.5"/>
<circle cx="234.845" cy="129.15" r="2.5" fill="#DBDBDB" fill-opacity="0.5"/>
<circle cx="242.845" cy="115.15" r="2.5" fill="#DBDBDB" fill-opacity="0.99"/>
<circle cx="242.845" cy="115.15" r="2.5" fill="#DBDBDB" fill-opacity="0.99"/>
<circle cx="242.845" cy="115.15" r="2.5" fill="#DBDBDB" fill-opacity="0.99"/>
<circle cx="242.845" cy="115.15" r="2.5" fill="#DBDBDB" fill-opacity="0.99"/>
<circle cx="246.845" cy="144.15" r="3.5" fill="#DBDBDB" fill-opacity="0.5"/>
<circle cx="246.845" cy="144.15" r="3.5" fill="#DBDBDB" fill-opacity="0.5"/>
<circle cx="246.845" cy="144.15" r="3.5" fill="#DBDBDB" fill-opacity="0.5"/>
<circle cx="246.845" cy="144.15" r="3.5" fill="#DBDBDB" fill-opacity="0.5"/>
<circle cx="217.845" cy="124.15" r="3.5" fill="#5F8565" fill-opacity="0.25"/>
<circle cx="217.845" cy="124.15" r="3.5" fill="#5F8565" fill-opacity="0.25"/>
<circle cx="217.845" cy="124.15" r="3.5" fill="#5F8565" fill-opacity="0.25"/>
<circle cx="217.845" cy="124.15" r="3.5" fill="#5F8565" fill-opacity="0.25"/>
<circle cx="157.845" cy="127.15" r="3.5" fill="#5F8565" fill-opacity="0.25"/>
<circle cx="157.845" cy="127.15" r="3.5" fill="#5F8565" fill-opacity="0.25"/>
<circle cx="157.845" cy="127.15" r="3.5" fill="#5F8565" fill-opacity="0.25"/>
<circle cx="157.845" cy="127.15" r="3.5" fill="#5F8565" fill-opacity="0.25"/>
<circle cx="122.845" cy="130.15" r="3.5" fill="#5F8565" fill-opacity="0.25"/>
<circle cx="122.845" cy="130.15" r="3.5" fill="#5F8565" fill-opacity="0.25"/>
<circle cx="122.845" cy="130.15" r="3.5" fill="#5F8565" fill-opacity="0.25"/>
<circle cx="122.845" cy="130.15" r="3.5" fill="#5F8565" fill-opacity="0.25"/>
<circle cx="224.845" cy="158.15" r="2.5" fill="#5F8565" fill-opacity="0.25"/>
<circle cx="224.845" cy="158.15" r="2.5" fill="#5F8565" fill-opacity="0.25"/>
<circle cx="224.845" cy="158.15" r="2.5" fill="#5F8565" fill-opacity="0.25"/>
<circle cx="224.845" cy="158.15" r="2.5" fill="#5F8565" fill-opacity="0.25"/>
<circle cx="234.845" cy="201.15" r="2.5" fill="#5F8565" fill-opacity="0.25"/>
<circle cx="234.845" cy="201.15" r="2.5" fill="#5F8565" fill-opacity="0.25"/>
<circle cx="234.845" cy="201.15" r="2.5" fill="#5F8565" fill-opacity="0.25"/>
<circle cx="234.845" cy="201.15" r="2.5" fill="#5F8565" fill-opacity="0.25"/>
<circle cx="260.845" cy="219.15" r="2.5" fill="#DBDBDB" fill-opacity="0.5"/>
<circle cx="260.845" cy="219.15" r="2.5" fill="#DBDBDB" fill-opacity="0.5"/>
<circle cx="260.845" cy="219.15" r="2.5" fill="#DBDBDB" fill-opacity="0.5"/>
<circle cx="260.845" cy="219.15" r="2.5" fill="#DBDBDB" fill-opacity="0.5"/>
<path d="M209.5 108L160 117.5L51 335H329.5L209.5 108Z" fill="url(#paint0_linear_52_146)"/>
<path d="M185.845 288.65C185.012 292.484 182.943 300.15 182.143 300.15C181.143 300.15 177.652 301.65 177.643 299.15C177.635 297.144 179.734 285.029 178.643 285.15C176.143 291.817 170.543 304.25 168.143 300.65C165.143 296.15 170.071 294.211 170.143 292.15C170.241 289.333 172.143 281.65 170.643 280.65C166.976 282.484 160.643 284.936 157.643 283.65C154.143 282.15 153.643 273.15 155.143 271.15C155.976 269.317 157.843 265.75 158.643 266.15C159.643 266.65 155.543 255.65 157.143 247.65C157.643 245.15 157.143 239.15 160.643 233.65C161.809 233.484 164.343 236.05 165.143 247.65C165.79 257.032 165.599 259.297 165.52 259.727C165.543 259.688 165.581 259.65 165.643 259.65C166.143 259.65 173.643 234.15 177.143 236.15C179.943 237.75 178.309 247.817 177.143 252.65L172.345 265.15C173.345 265.484 175.643 265.55 175.643 265.15C175.643 264.65 183.73 247.941 184.52 247.15C185.52 246.15 198.52 234.15 201.02 235.15C199.52 234.55 198.845 228.15 204.845 228.15C212.345 228.15 209.845 235.15 209.845 235.65C209.845 236.15 213.845 241.15 214.345 241.15C214.845 241.15 219.345 238.65 221.845 239.65C224.345 240.65 234.643 239.63 234.643 245.65C234.643 248.65 229.845 246.131 228.643 245.65C226.143 244.65 217.643 243.65 217.143 245.15C216.491 247.106 229.643 248.65 228.643 252.65C226.845 253.65 222.345 254.15 215.143 250.15C207.661 252.891 206.85 252.171 206.902 251.72C198.902 269.553 187.008 276 189 276C190.6 276 187.564 284.434 185.845 288.65Z" fill="url(#paint1_linear_52_146)"/>
<path d="M185.845 288.65C185.012 292.484 182.943 300.15 182.143 300.15C181.143 300.15 177.652 301.65 177.643 299.15C177.635 297.144 179.734 285.029 178.643 285.15C176.143 291.817 170.543 304.25 168.143 300.65C165.143 296.15 170.071 294.211 170.143 292.15C170.241 289.333 172.143 281.65 170.643 280.65C166.976 282.484 160.643 284.936 157.643 283.65C154.143 282.15 153.643 273.15 155.143 271.15C155.976 269.317 157.843 265.75 158.643 266.15C159.643 266.65 155.543 255.65 157.143 247.65C157.643 245.15 157.143 239.15 160.643 233.65C161.809 233.484 164.343 236.05 165.143 247.65C165.79 257.032 165.599 259.297 165.52 259.727C165.543 259.688 165.581 259.65 165.643 259.65C166.143 259.65 173.643 234.15 177.143 236.15C179.943 237.75 178.309 247.817 177.143 252.65L172.345 265.15C173.345 265.484 175.643 265.55 175.643 265.15C175.643 264.65 183.73 247.941 184.52 247.15C185.52 246.15 198.52 234.15 201.02 235.15C199.52 234.55 198.845 228.15 204.845 228.15C212.345 228.15 209.845 235.15 209.845 235.65C209.845 236.15 213.845 241.15 214.345 241.15C214.845 241.15 219.345 238.65 221.845 239.65C224.345 240.65 234.643 239.63 234.643 245.65C234.643 248.65 229.845 246.131 228.643 245.65C226.143 244.65 217.643 243.65 217.143 245.15C216.491 247.106 229.643 248.65 228.643 252.65C226.845 253.65 222.345 254.15 215.143 250.15C207.661 252.891 206.85 252.171 206.902 251.72C198.902 269.553 187.008 276 189 276C190.6 276 187.564 284.434 185.845 288.65Z" fill="black" fill-opacity="0.65"/>
<circle cx="163.345" cy="273.65" r="2" fill="url(#paint2_linear_52_146)"/>
<path d="M38.3455 415.15L27.3455 415.65C27.0658 415.122 21.1105 418.149 14.3455 405.15C7.58045 392.151 -4.65456 367.15 1.84548 364.15C7.49415 361.543 22.0797 387.531 25.2563 396.113C23.4736 382.978 19.1684 324.707 23.8455 322.15C28.6062 319.548 35.525 382.809 36.3471 393.764C36.7008 387.577 39.993 363.781 42.9852 351.363C43.9852 351.863 45.7455 356.35 47.3455 365.15C48.9455 373.95 44.8455 404.65 38.3455 415.15Z" fill="url(#paint3_linear_52_146)"/>
<path d="M329.846 400.65H320.846C311.846 392.65 311.846 370.65 313.846 369.65C315.446 368.85 319.179 382.317 320.846 389.15C320.346 376.817 320.246 351.55 323.846 349.15C328.346 346.15 327.042 388.603 328.346 389.15C329.695 389.717 332.905 368.655 340.346 366.15C346.411 364.108 336.012 389.15 329.846 400.65Z" fill="url(#paint4_linear_52_146)"/>
<path d="M358.845 409.65L348.845 405.65C349.15 372.271 353.345 324.15 360.345 324.15C367.345 324.15 357.845 394.15 357.845 394.15C360.817 381.452 372.664 361.435 379.845 361.65C387.027 361.865 369.454 400.022 358.845 409.65Z" fill="url(#paint5_linear_52_146)"/>
<ellipse cx="184.846" cy="402.15" rx="119.5" ry="17.5" fill="#D9D9D9" fill-opacity="0.31"/>
<ellipse cx="187.345" cy="402.65" rx="62" ry="8" fill="#459CB7" fill-opacity="0.65"/>
<path d="M179.077 108.493L179.075 108.493C147.614 113.265 122.305 109.018 104.843 103.313C96.1133 100.461 89.3426 97.2445 84.7425 94.6065C82.4433 93.288 80.681 92.1109 79.485 91.1926C79.0291 90.8426 78.6503 90.5262 78.3534 90.2505C78.1579 93.9515 80.2914 97.7371 84.5725 101.288C89.2941 105.205 96.5442 108.756 105.813 111.472C124.343 116.901 150.821 118.953 180.919 114.007C211.044 109.055 239.98 100.098 259.436 89.8221C269.173 84.6796 276.482 79.2343 280.399 73.8387C282.353 71.1464 283.444 68.492 283.596 65.9115C283.748 63.3404 282.971 60.7942 281.1 58.3001C281.064 58.2518 281.032 58.2129 281.005 58.1817C280.961 58.2622 280.907 58.3757 280.842 58.5321C280.732 58.7954 280.611 59.13 280.459 59.5459L280.446 59.5832C279.818 61.3095 278.769 64.1681 276.412 67.704C271.696 74.7781 261.792 84.4926 239.688 93.4373L239.681 93.4401C225.162 99.0615 205.563 104.367 179.077 108.493Z" fill="#7A7A7A" fill-opacity="0.76" stroke="#595959"/>
<defs>
<linearGradient id="paint0_linear_52_146" x1="187" y1="97" x2="190.25" y2="335" gradientUnits="userSpaceOnUse">
<stop stop-color="#214956" stop-opacity="0.7"/>
<stop offset="1" stop-color="#86A5D9" stop-opacity="0"/>
</linearGradient>
<linearGradient id="paint1_linear_52_146" x1="194.494" y1="228.15" x2="194.494" y2="301.292" gradientUnits="userSpaceOnUse">
<stop stop-color="#00FFE0" stop-opacity="0.4"/>
<stop offset="1" stop-opacity="0.85"/>
</linearGradient>
<linearGradient id="paint2_linear_52_146" x1="163.345" y1="271.65" x2="167.5" y2="280" gradientUnits="userSpaceOnUse">
<stop stop-color="white"/>
<stop offset="1" stop-color="white" stop-opacity="0"/>
</linearGradient>
<linearGradient id="paint3_linear_52_146" x1="23.846" y1="322.072" x2="23.846" y2="415.65" gradientUnits="userSpaceOnUse">
<stop stop-color="#07E1FF"/>
<stop offset="1" stop-color="#2BE83F"/>
</linearGradient>
<linearGradient id="paint4_linear_52_146" x1="347.145" y1="324.15" x2="347.145" y2="409.65" gradientUnits="userSpaceOnUse">
<stop stop-color="#00C2FF" stop-opacity="0.7"/>
<stop offset="1" stop-color="#2BE83F"/>
</linearGradient>
<linearGradient id="paint5_linear_52_146" x1="347.145" y1="324.15" x2="347.145" y2="409.65" gradientUnits="userSpaceOnUse">
<stop stop-color="#00C2FF" stop-opacity="0.7"/>
<stop offset="1" stop-color="#2BE83F"/>
</linearGradient>
</defs>
</svg>
