<svg width="35" height="35" viewBox="0 0 35 35" fill="none" xmlns="http://www.w3.org/2000/svg">
<path d="M13.125 27.7085C5.83333 29.896 5.83333 24.0627 2.91666 23.3335M23.3333 32.0835V26.4398C23.388 25.7444 23.2941 25.0453 23.0577 24.389C22.8214 23.7328 22.448 23.1343 21.9625 22.6335C26.5417 22.1231 31.3542 20.3877 31.3542 12.4252C31.3538 10.3891 30.5706 8.43109 29.1667 6.95642C29.8315 5.17508 29.7844 3.2061 29.0354 1.45851C29.0354 1.45851 27.3146 0.94809 23.3333 3.61684C19.9908 2.71096 16.4675 2.71096 13.125 3.61684C9.14375 0.94809 7.42291 1.45851 7.42291 1.45851C6.67388 3.2061 6.62687 5.17508 7.29166 6.95642C5.87727 8.44203 5.09326 10.4177 5.10416 12.4689C5.10416 20.3731 9.91666 22.1085 14.4958 22.6773C14.016 23.173 13.646 23.7643 13.4098 24.4126C13.1736 25.0608 13.0766 25.7515 13.125 26.4398V32.0835" stroke="white" stroke-opacity="0.85" stroke-width="2" stroke-linecap="round" stroke-linejoin="round"/>
</svg>
